<?xml version="1.0" standalone="no"?>
<!DOCTYPE svg PUBLIC "-//W3C//DTD SVG 20010904//EN"
 "http://www.w3.org/TR/2001/REC-SVG-20010904/DTD/svg10.dtd">
<svg version="1.0" xmlns="http://www.w3.org/2000/svg"
 width="300.000000pt" height="255.000000pt" viewBox="0 0 300.000000 255.000000"
 preserveAspectRatio="xMidYMid meet">
<metadata>
Created by potrace 1.10, written by Peter Selinger 2001-2011
</metadata>
<g transform="translate(0.000000,255.000000) scale(0.100000,-0.100000)"
fill="#000000" stroke="none">
<path d="M870 2500 c-1 -3 0 -236 0 -517 l1 -513 -221 0 c-187 0 -222 2 -226
15 -5 13 -35 15 -186 15 l-180 0 6 -32 c11 -53 55 -117 107 -155 27 -19 54
-44 60 -55 6 -11 33 -30 61 -43 66 -31 108 -72 108 -105 0 -53 98 -210 130
-210 5 0 22 -11 38 -25 16 -13 64 -39 107 -56 76 -30 80 -31 112 -15 19 9 39
16 45 16 18 0 47 31 42 44 -3 7 6 21 20 30 15 9 26 23 26 31 0 13 23 15 140
15 l140 0 20 -40 c15 -30 29 -42 50 -47 21 -4 32 -13 36 -29 4 -14 18 -34 33
-47 15 -12 50 -58 77 -101 27 -43 61 -88 76 -99 14 -11 29 -31 33 -45 4 -15
22 -40 41 -57 29 -26 35 -40 44 -100 7 -42 19 -78 30 -90 10 -11 25 -37 33
-57 20 -47 74 -82 195 -124 73 -26 104 -32 140 -28 34 4 57 0 82 -13 32 -17
38 -17 63 -3 30 17 38 66 12 76 -8 4 -15 16 -15 28 0 12 -7 46 -16 76 -12 42
-13 59 -4 78 6 15 7 29 2 34 -5 5 2 30 16 60 16 34 21 53 13 56 -22 7 -11 32
15 32 19 0 28 7 37 30 6 17 17 30 25 30 7 0 31 14 53 32 33 27 39 37 39 70 0
37 1 38 35 38 20 0 37 -6 43 -15 7 -13 12 -12 32 10 13 14 29 25 36 25 7 0 27
12 45 27 18 16 49 29 73 33 29 3 44 11 50 26 5 12 24 31 43 44 22 15 33 31 33
46 0 21 5 24 39 24 22 0 43 5 47 11 3 6 26 20 50 31 40 17 44 22 46 56 0 20 0
49 -1 64 -1 14 3 29 8 33 6 3 11 25 12 48 0 23 6 57 13 76 13 37 1 110 -22
133 -7 7 -12 21 -13 33 0 19 -12 40 -54 101 -18 25 -20 47 -23 191 l-3 163
-42 0 c-23 1 -53 7 -67 15 -14 8 -41 14 -61 15 -23 0 -42 7 -54 20 -9 10 -29
19 -44 19 -104 2 -165 -5 -202 -23 -41 -21 -52 -20 -73 3 -16 18 -20 18 -73 4
-43 -11 -66 -12 -97 -4 -68 17 -129 25 -168 22 -20 -1 -47 4 -60 13 -12 8 -43
18 -68 21 -25 4 -74 18 -110 32 -36 15 -83 27 -105 27 -30 1 -42 6 -50 22 -6
12 -17 29 -24 38 -10 12 -12 62 -10 216 l3 201 -322 2 c-177 1 -322 0 -322 -3z
m599 -71 c3 -24 3 -24 -18 -5 -11 10 -18 23 -15 28 10 16 29 2 33 -23z m-49
-190 c0 -152 3 -188 14 -192 8 -3 12 -14 10 -25 -4 -14 8 -27 49 -55 45 -29
62 -35 89 -31 23 4 51 -2 92 -20 32 -14 77 -26 100 -26 30 0 52 -8 77 -26 29
-22 41 -25 81 -19 28 3 49 1 53 -5 4 -6 21 -8 41 -4 24 4 42 1 59 -10 23 -15
31 -15 80 -2 46 12 56 12 66 0 18 -22 125 -19 150 5 17 15 27 17 51 10 18 -5
38 -5 49 1 12 7 31 4 64 -10 26 -11 62 -20 80 -20 19 0 50 -8 70 -17 l35 -17
0 -120 0 -121 40 -78 c22 -42 40 -82 40 -89 0 -6 7 -19 15 -28 9 -10 16 -30
16 -46 2 -53 -14 -139 -27 -147 -9 -5 -11 -23 -7 -62 5 -45 3 -55 -9 -55 -9 0
-21 -7 -28 -15 -7 -8 -19 -15 -27 -15 -8 0 -39 -7 -69 -16 -49 -14 -54 -18
-54 -43 0 -33 -60 -91 -94 -91 -11 0 -32 -12 -48 -27 -24 -23 -40 -28 -127
-37 -109 -11 -111 -12 -111 -83 0 -47 -21 -63 -67 -52 -55 13 -55 13 -51 -31
4 -41 -4 -50 -43 -50 -17 0 -19 -8 -19 -68 0 -65 -2 -70 -36 -103 l-35 -34 21
-17 c12 -10 19 -22 16 -27 -4 -5 2 -42 13 -80 11 -39 19 -71 18 -71 -53 -11
-120 -7 -153 10 -21 11 -47 20 -58 20 -31 0 -85 42 -96 74 -6 16 -17 37 -26
47 -8 9 -20 48 -25 85 -9 59 -16 75 -49 109 -21 22 -45 54 -54 71 -8 17 -22
34 -30 37 -15 6 -77 96 -103 152 -8 17 -28 40 -43 50 -16 11 -35 36 -44 57
-11 30 -20 38 -40 38 -19 0 -31 11 -53 51 l-28 51 -200 0 -200 0 -9 -34 c-5
-22 -21 -43 -42 -57 -19 -13 -31 -27 -28 -32 11 -19 -29 -21 -69 -4 -121 52
-206 140 -214 224 -5 39 -13 54 -55 97 -29 30 -66 57 -89 64 -23 8 -49 26 -61
42 -11 16 -38 40 -59 54 -21 13 -39 29 -39 34 0 6 35 10 84 10 62 0 87 -4 96
-15 11 -13 57 -15 302 -15 l289 0 -1 513 c0 281 -1 514 0 517 0 3 104 5 230 5
l230 0 0 -186z m-500 -779 c0 -20 -25 -38 -37 -26 -5 5 24 46 34 46 1 0 3 -9
3 -20z m-740 -19 c0 -6 -4 -13 -10 -16 -5 -3 -10 -16 -10 -28 0 -22 -1 -22
-20 3 -28 36 -25 50 10 50 17 0 30 -4 30 -9z m2510 -510 c0 -13 -81 -101 -93
-101 -6 0 -1 7 11 16 13 9 34 33 48 55 24 38 34 47 34 30z m-480 -333 c-1 -7
-21 -33 -45 -58 -25 -25 -45 -53 -45 -64 0 -10 -7 -39 -15 -65 -8 -25 -18 -64
-21 -86 -5 -33 -8 -36 -14 -20 -15 35 -11 71 10 95 14 16 20 37 20 70 0 39 5
52 35 84 19 21 35 42 35 47 0 5 9 9 20 9 11 0 20 -6 20 -12z m-95 -455 c8 -20
13 -38 11 -41 -3 -2 -21 1 -40 8 l-36 12 22 28 c13 16 24 29 25 29 2 1 10 -15
18 -36z"/>
</g>
</svg>
